<svg width="43" height="43" viewBox="0 0 43 43" fill="none" xmlns="http://www.w3.org/2000/svg">
<g clip-path="url(#clip0)">
<path d="M40.5982 9.67739L37.2556 13.0191L40.3596 16.124C41.1893 16.9537 40.6145 18.2959 39.4912 18.2959H29.01C28.3138 18.2959 27.7502 17.7323 27.7502 17.0361V8.78632C27.7502 8.09093 28.3138 7.52655 29.01 7.52655H39.7071C40.7937 7.52655 41.3695 8.90179 40.5982 9.67739Z" fill="#FF3053"/>
<path d="M31.6243 5.11975V13.3695C31.6243 14.0658 31.0599 14.6293 30.3645 14.6293H21.5C20.8046 14.6293 20.2402 14.0658 20.2402 13.3695V5.11975C20.2402 4.42436 20.8046 3.85999 21.5 3.85999H30.3645C31.0599 3.85999 31.6243 4.42436 31.6243 5.11975Z" fill="#FF645A"/>
<path d="M21.5 23.7688C20.8043 23.7688 20.2402 23.2048 20.2402 22.5091V1.25977C20.2402 0.564039 20.8043 0 21.5 0C22.1957 0 22.7598 0.564039 22.7598 1.25977V22.5091C22.7598 23.2048 22.1957 23.7688 21.5 23.7688Z" fill="#FABE2C"/>
<path d="M14.3781 31.9687L7.30219 41.4864C7.06703 41.8241 6.50056 42.4204 6.08904 42.4204L3.58613 43H1.25977C0.564375 43 0 42.4356 0 41.7402V36.2552C0 35.4364 0.282187 34.6335 0.793652 33.9944L6.88756 26.3879C7.38475 25.7681 8.12549 25.4095 8.91998 25.4053H8.93594C9.72455 25.4053 10.4628 25.7538 10.9633 26.3635L13.2578 29.1577L14.3177 30.4485C14.6763 30.8844 14.7006 31.5059 14.3781 31.9687Z" fill="#47568C"/>
<path d="M43 36.2552V41.7402C43 42.4356 42.4357 43 41.7403 43H39.3106L37.0134 42.4219C36.601 42.4219 36.1161 41.8433 35.8801 41.5057L28.6219 31.9687C28.2994 31.5059 28.3238 30.8844 28.6824 30.4485L29.7255 29.1779L32.0367 26.3635C32.5373 25.7538 33.2755 25.4053 34.0641 25.4053H34.0801C34.8746 25.4095 35.6153 25.7681 36.1125 26.3887L42.2055 33.9944C42.7179 34.6326 43 35.4364 43 36.2552Z" fill="#29376D"/>
<path d="M39.3104 43.0005H32.5278L30.633 42.1125L29.5128 43.0005H13.4869L12.4928 41.9692L10.4718 43.0005H3.58594L13.2576 29.1581L17.3535 23.2944C17.3678 23.2734 17.3837 23.2532 17.3997 23.2331C18.3873 21.9859 19.8613 21.2653 21.4486 21.251C21.4654 21.2502 21.4822 21.2502 21.499 21.2502H21.4998C23.1064 21.2502 24.6013 21.9724 25.5991 23.2331C25.615 23.2532 25.6302 23.2734 25.6453 23.2944L29.7252 29.1783L39.3104 43.0005Z" fill="#4793FF"/>
<path d="M39.3105 43.0005H32.528L30.6332 42.1125L29.5129 43.0005H21.4487V21.251C21.4655 21.2502 21.4823 21.2502 21.4991 21.2502H21.5C23.1066 21.2502 24.6015 21.9724 25.5992 23.2331C25.6152 23.2532 25.6303 23.2734 25.6454 23.2944L29.7254 29.1783L39.3105 43.0005Z" fill="#525CDD"/>
<path d="M32.5279 42.9996H29.5129L24.7913 35.8173C24.4091 35.2361 24.5695 34.4551 25.1507 34.0721C25.7319 33.69 26.5129 33.8504 26.8959 34.4315L32.5279 42.9996Z" fill="#47568C"/>
<path d="M18.2088 35.8173L13.4872 42.9996H10.4722L16.1042 34.4315C16.4871 33.8504 17.2682 33.69 17.8494 34.0721C18.4305 34.4551 18.5909 35.2361 18.2088 35.8173Z" fill="#525CDD"/>
</g>
<defs>
<clipPath id="clip0">
<rect width="43" height="43" fill="white"/>
</clipPath>
</defs>
</svg>
