<svg width="45" height="45" viewBox="0 0 45 45" fill="none" xmlns="http://www.w3.org/2000/svg">
<path d="M25.9908 8.01935H12.9939C13.0389 8.22747 13.0889 8.46935 13.1476 8.74935C13.4451 10.1787 14.0176 12.9837 15.1176 18.4862C15.1876 18.8375 15.267 19.1737 15.3508 19.4962C15.3758 19.5925 15.4033 19.6837 15.4295 19.7781C15.492 20.0062 15.5589 20.2287 15.6295 20.4431C15.6614 20.5393 15.692 20.6306 15.727 20.7262C15.8028 20.9395 15.8826 21.1458 15.9664 21.345C15.997 21.4181 16.0289 21.4925 16.0583 21.5637C16.1726 21.8218 16.2933 22.07 16.422 22.3031L16.4283 22.315C16.5656 22.5638 16.716 22.8052 16.8789 23.0381L16.8945 23.0593C17.0388 23.2632 17.194 23.4592 17.3595 23.6462C17.3858 23.6756 17.4126 23.7043 17.4395 23.7331C17.5869 23.8943 17.7428 24.0477 17.9064 24.1925C17.9326 24.2156 17.9589 24.24 17.9858 24.2625C19.264 25.3023 20.8797 25.8361 22.5258 25.7625C23.1415 25.7645 23.7558 25.7 24.3576 25.57C25.82 19.8418 26.3711 13.919 25.9908 8.01935Z" fill="#FCEA2B"/>
<path d="M25.9907 8.01935C26.371 13.9183 25.8201 19.8405 24.3582 25.5681C27.2994 24.9262 29.0932 22.6106 29.9344 18.4056C30.845 13.8543 31.5038 10.6093 31.8932 8.76122C31.9557 8.47622 32.0057 8.2306 32.0525 8.01935H25.9907Z" fill="#F1B31C"/>
<path d="M19.6384 32.0831H17.219V36.5625H24.0677V32.0831H19.6384Z" fill="#FCEA2B"/>
<path d="M27.427 32.0831H24.0676V36.5625H27.427V32.0831Z" fill="#F1B31C"/>
<path d="M22.5232 17.8631C23.9039 17.8631 25.0232 16.7438 25.0232 15.3631C25.0232 13.9824 23.9039 12.8631 22.5232 12.8631C21.1425 12.8631 20.0232 13.9824 20.0232 15.3631C20.0232 16.7438 21.1425 17.8631 22.5232 17.8631Z" fill="#F1B31C"/>
<path d="M32.8359 7.39516C32.8359 7.39516 32.8359 7.07078 30.5441 18.5289C29.5516 23.4927 27.1066 26.3864 22.5234 26.3864C17.9403 26.3864 15.4953 23.5739 14.5028 18.6095C12.2109 7.15141 12.2109 7.39516 12.2109 7.39516H32.8359Z" stroke="black" stroke-width="2" stroke-linecap="round" stroke-linejoin="round"/>
<path d="M14.4028 19.6743C14.4028 19.6743 14.4522 19.5112 11.0147 17.2193C9.43466 16.1675 7.60278 14.7818 7.60278 12.88C7.60278 10.9781 9.16528 9.68622 11.0647 9.68622H12.0103" stroke="black" stroke-width="2" stroke-linecap="round" stroke-linejoin="round"/>
<path d="M30.4448 19.8541C30.4448 19.8541 30.4942 19.691 33.9317 17.3991C35.5117 16.3472 37.3948 14.9616 37.3948 13.0597C37.3857 11.2835 35.9384 9.8509 34.1621 9.85997C34.102 9.86028 34.0418 9.86228 33.9817 9.86597H32.6355" stroke="black" stroke-width="2" stroke-linecap="round" stroke-linejoin="round"/>
<path d="M28.0521 31.4575H16.594V37.1868H28.0521V31.4575Z" stroke="black" stroke-width="2" stroke-linecap="round" stroke-linejoin="round"/>
<path d="M22.5234 18.4881C24.2493 18.4881 25.6484 17.089 25.6484 15.3631C25.6484 13.6372 24.2493 12.2381 22.5234 12.2381C20.7975 12.2381 19.3984 13.6372 19.3984 15.3631C19.3984 17.089 20.7975 18.4881 22.5234 18.4881Z" stroke="black" stroke-width="2" stroke-linecap="round" stroke-linejoin="round"/>
<path d="M22.5234 31.4576V26.3864" stroke="black" stroke-width="2" stroke-linecap="round" stroke-linejoin="round"/>
</svg>
